<?xml version="1.0" standalone="no"?>
<!DOCTYPE svg PUBLIC "-//W3C//DTD SVG 20010904//EN"
 "http://www.w3.org/TR/2001/REC-SVG-20010904/DTD/svg10.dtd">
<svg version="1.0" xmlns="http://www.w3.org/2000/svg"
 width="76.000000pt" height="68.000000pt" viewBox="0 0 76.000000 68.000000"
 preserveAspectRatio="xMidYMid meet">

<g transform="translate(0.000000,68.000000) scale(0.100000,-0.100000)"
fill="#000000" stroke="none">
<path d="M332 540 c-88 -31 -165 -105 -187 -179 -6 -21 -3 -19 24 12 44 50
120 84 216 97 75 9 160 3 208 -15 22 -9 22 8 0 41 -40 62 -156 82 -261 44z"/>
<path d="M604 424 c-6 -2 -8 -18 -6 -35 l4 -31 52 7 c70 10 81 17 59 38 -19
16 -89 30 -109 21z"/>
<path d="M424 366 c-3 -8 -4 -25 -2 -38 2 -18 10 -24 35 -26 39 -4 60 25 43
58 -13 24 -68 28 -76 6z"/>
<path d="M601 273 c-1 -18 -66 -48 -129 -62 -29 -6 -118 -11 -197 -11 l-145 0
0 -40 0 -40 160 0 c173 0 200 6 258 55 36 30 66 80 58 98 -3 9 -5 9 -5 0z"/>
</g>
</svg>
